<?xml version="1.0" encoding="utf-8"?>
<!-- Generator: Adobe Illustrator 19.1.1, SVG Export Plug-In . SVG Version: 6.00 Build 0)  -->
<svg version="1.1" id="Vrstva_1" xmlns="http://www.w3.org/2000/svg" xmlns:xlink="http://www.w3.org/1999/xlink" x="0px" y="0px"
	 viewBox="0 0 377.7 264.9" style="enable-background:new 0 0 377.7 264.9;" xml:space="preserve">
<style type="text/css">
	.st0{fill:#FFFFFF;}
</style>
<g>
	<path class="st0" d="M59.2,0c5.5,0,7.6,2.6,6.8,8.1L51.3,92.5l22.8-11.8c7.1-3.4,13.6-5.8,19.1-5.8c14.9,0,23.6,10.5,20.7,26.5
		l-13.9,81c-2.9,15.7-15.5,26.5-30.1,26.5c-2.1,0-5.8-0.3-8.6-1l-29.1-5l-4.7,5.2H6.8c-5.5,0-7.9-2.9-6.8-8.4L33.3,8.1
		C34.1,2.6,37.2,0,42.7,0H59.2z M47.4,114.8l-11.3,65.5h21c6.3,0,11-3.7,12.3-10.2l9.4-55.3c1.3-7.3-4.2-11-10.2-8.1L47.4,114.8z"/>
	<path class="st0" d="M150.6,83.9c0.8-5.5,3.9-8.1,9.4-8.1h16.5c5.5,0,7.6,2.6,6.8,8.1l-20.2,116.1c-1,5.5-4.2,8.1-9.4,8.1h-16.5
		c-5.5,0-7.9-2.6-6.8-8.1L150.6,83.9z"/>
	<path class="st0" d="M216.4,83.9c0.8-5.5,3.9-8.1,9.4-8.1h16.5c5.5,0,7.6,2.6,6.8,8.1l-20.2,116.1c-1,5.5-4.2,8.1-9.4,8.1H203
		c-5.5,0-7.9-2.6-6.8-8.1L216.4,83.9z"/>
	<path class="st0" d="M362.6,181.6c-2.9,15.7-14.4,26.5-29.9,26.5c-3.1,0-7.1-0.2-9.4-1l-28.6-5l-9.4,54.8c-0.8,5.5-3.9,8.1-9.4,8.1
		h-16.5c-5.5,0-7.6-2.6-6.8-7.9l30.1-172.9c0.8-5.5,3.9-8.4,9.4-8.4h20.7l3.1,5.2l-2.1,11.5l22.8-11.8c7.1-3.4,13.4-5.8,19.4-5.8
		c14.7,0,23.3,10.8,20.4,26.5L362.6,181.6z M319.6,179.5c6.3,0,11.3-3.9,12.3-10.2l9.4-54.5c1.3-7.3-4.2-11-10.2-8.1l-21.2,8.1
		l-11.3,64.7H319.6z"/>
	<path class="st0" d="M262.1,22.8c0,10.4-8.4,18.8-18.8,18.8c-10.4,0-18.8-8.4-18.8-18.8c0-10.4,8.4-18.8,18.8-18.8
		C253.7,4.1,262.1,12.5,262.1,22.8z"/>
	<path class="st0" d="M377.7,22.8c0,10.4-8.4,18.8-18.8,18.8c-10.4,0-18.8-8.4-18.8-18.8c0-10.4,8.4-18.8,18.8-18.8
		C369.2,4.1,377.7,12.5,377.7,22.8z"/>
	<path class="st0" d="M191.5,22.8c0,10.4-8.4,18.8-18.8,18.8c-10.4,0-18.8-8.4-18.8-18.8c0-10.4,8.4-18.8,18.8-18.8
		C183.1,4.1,191.5,12.5,191.5,22.8z"/>
	<rect x="175.8" y="18.7" class="st0" width="181.1" height="8.2"/>
	<line class="st0" x1="144.6" y1="206.9" x2="145.2" y2="207.5"/>
</g>
</svg>
